<svg width="91" height="36" viewBox="0 0 91 36" fill="none" xmlns="http://www.w3.org/2000/svg">
<path d="M7.656 24.168C6.984 24.168 6.52 23.808 6.264 23.088L1.104 8.376C0.96 7.96 0.984 7.616 1.176 7.344C1.384 7.056 1.72 6.912 2.184 6.912C2.536 6.912 2.808 6.992 3 7.152C3.208 7.312 3.368 7.568 3.48 7.92L7.728 20.4L12.072 7.968C12.344 7.264 12.768 6.912 13.344 6.912C13.664 6.912 13.912 7 14.088 7.176C14.28 7.352 14.448 7.624 14.592 7.992L18.888 20.544L23.232 7.92C23.344 7.584 23.496 7.336 23.688 7.176C23.896 7 24.168 6.912 24.504 6.912C24.92 6.912 25.224 7.056 25.416 7.344C25.624 7.616 25.648 7.96 25.488 8.376L20.304 23.112C20.16 23.464 19.984 23.728 19.776 23.904C19.568 24.08 19.288 24.168 18.936 24.168C18.568 24.168 18.28 24.08 18.072 23.904C17.864 23.728 17.696 23.456 17.568 23.088L13.296 10.848L8.976 23.112C8.848 23.464 8.68 23.728 8.472 23.904C8.28 24.08 8.008 24.168 7.656 24.168ZM30.6199 24.216C29.8039 24.216 29.0759 24.056 28.4359 23.736C27.7959 23.416 27.2839 22.984 26.8999 22.44C26.5319 21.896 26.3479 21.28 26.3479 20.592C26.3479 19.728 26.5639 19.048 26.9959 18.552C27.4439 18.056 28.1719 17.696 29.1799 17.472C30.2039 17.248 31.5799 17.136 33.3079 17.136H34.1239V16.512C34.1239 15.6 33.9319 14.944 33.5479 14.544C33.1639 14.144 32.5319 13.944 31.6519 13.944C31.1399 13.944 30.6039 14.008 30.0439 14.136C29.4999 14.264 28.9319 14.48 28.3399 14.784C28.0039 14.944 27.7239 14.968 27.4999 14.856C27.2919 14.744 27.1479 14.568 27.0679 14.328C26.9879 14.088 26.9959 13.84 27.0919 13.584C27.1879 13.328 27.3879 13.136 27.6919 13.008C28.3959 12.688 29.0919 12.456 29.7799 12.312C30.4679 12.152 31.1159 12.072 31.7239 12.072C33.3239 12.072 34.5079 12.456 35.2759 13.224C36.0439 13.976 36.4279 15.16 36.4279 16.776V22.944C36.4279 23.76 36.0519 24.168 35.2999 24.168C34.5319 24.168 34.1479 23.76 34.1479 22.944V22.056C33.8599 22.728 33.4119 23.256 32.8039 23.64C32.1959 24.024 31.4679 24.216 30.6199 24.216ZM31.0999 22.488C31.9639 22.488 32.6839 22.184 33.2599 21.576C33.8359 20.968 34.1239 20.2 34.1239 19.272V18.624H33.3319C32.1639 18.624 31.2439 18.68 30.5719 18.792C29.9159 18.904 29.4439 19.096 29.1559 19.368C28.8839 19.624 28.7479 19.984 28.7479 20.448C28.7479 21.056 28.9559 21.552 29.3719 21.936C29.7879 22.304 30.3639 22.488 31.0999 22.488ZM42.4093 28.488C41.9613 28.488 41.6493 28.32 41.4733 27.984C41.3133 27.664 41.3293 27.288 41.5213 26.856L42.9373 23.688L38.6653 13.776C38.4733 13.344 38.4653 12.96 38.6413 12.624C38.8333 12.288 39.2013 12.12 39.7453 12.12C40.0333 12.12 40.2653 12.192 40.4413 12.336C40.6333 12.48 40.8013 12.728 40.9453 13.08L44.2333 21.192L47.5693 13.08C47.7133 12.712 47.8813 12.464 48.0733 12.336C48.2653 12.192 48.5293 12.12 48.8653 12.12C49.2973 12.12 49.5933 12.288 49.7533 12.624C49.9133 12.96 49.9053 13.336 49.7293 13.752L43.7293 27.552C43.5693 27.92 43.3853 28.168 43.1773 28.296C42.9853 28.424 42.7293 28.488 42.4093 28.488ZM56.3711 24.216C55.3471 24.216 54.4431 23.976 53.6591 23.496C52.8911 23 52.2911 22.296 51.8591 21.384C51.4271 20.472 51.2111 19.392 51.2111 18.144C51.2111 16.896 51.4271 15.824 51.8591 14.928C52.2911 14.016 52.8911 13.312 53.6591 12.816C54.4271 12.32 55.3311 12.072 56.3711 12.072C57.2511 12.072 58.0351 12.264 58.7231 12.648C59.4111 13.032 59.9231 13.552 60.2591 14.208V8.136C60.2591 7.32 60.6591 6.912 61.4591 6.912C62.2751 6.912 62.6831 7.32 62.6831 8.136V22.944C62.6831 23.76 62.2831 24.168 61.4831 24.168C60.6831 24.168 60.2831 23.76 60.2831 22.944V22.032C59.9311 22.704 59.4111 23.24 58.7231 23.64C58.0351 24.024 57.2511 24.216 56.3711 24.216ZM56.9951 22.344C57.9871 22.344 58.7871 21.984 59.3951 21.264C60.0031 20.544 60.3071 19.504 60.3071 18.144C60.3071 16.784 60.0031 15.752 59.3951 15.048C58.7871 14.328 57.9871 13.968 56.9951 13.968C55.9871 13.968 55.1791 14.328 54.5711 15.048C53.9631 15.752 53.6591 16.784 53.6591 18.144C53.6591 19.504 53.9631 20.544 54.5711 21.264C55.1791 21.984 55.9871 22.344 56.9951 22.344ZM71.5828 24.216C69.6628 24.216 68.1508 23.68 67.0468 22.608C65.9428 21.52 65.3908 20.04 65.3908 18.168C65.3908 16.968 65.6308 15.912 66.1108 15C66.6068 14.072 67.2868 13.352 68.1508 12.84C69.0148 12.328 70.0068 12.072 71.1268 12.072C72.7428 12.072 74.0148 12.592 74.9428 13.632C75.8708 14.656 76.3348 16.072 76.3348 17.88C76.3348 18.424 76.0148 18.696 75.3748 18.696H67.7428C67.9188 21.128 69.2068 22.344 71.6068 22.344C72.0868 22.344 72.5908 22.288 73.1188 22.176C73.6468 22.048 74.1588 21.824 74.6548 21.504C74.9908 21.312 75.2788 21.248 75.5188 21.312C75.7748 21.36 75.9588 21.496 76.0708 21.72C76.1828 21.928 76.1988 22.168 76.1188 22.44C76.0548 22.696 75.8708 22.92 75.5668 23.112C75.0228 23.48 74.3828 23.76 73.6468 23.952C72.9268 24.128 72.2388 24.216 71.5828 24.216ZM71.2228 13.776C70.2148 13.776 69.4148 14.088 68.8228 14.712C68.2308 15.336 67.8708 16.168 67.7428 17.208H74.2948C74.2468 16.12 73.9588 15.28 73.4308 14.688C72.9028 14.08 72.1668 13.776 71.2228 13.776ZM79.2917 24.144C78.8597 24.144 78.5477 23.968 78.3557 23.616C78.1797 23.264 78.2677 22.864 78.6197 22.416L82.2197 17.952L78.8837 13.824C78.5157 13.392 78.4277 13 78.6197 12.648C78.8117 12.296 79.1157 12.12 79.5317 12.12C79.8357 12.12 80.0837 12.176 80.2757 12.288C80.4837 12.384 80.6757 12.552 80.8517 12.792L83.6117 16.296L86.3957 12.792C86.5717 12.552 86.7557 12.384 86.9477 12.288C87.1397 12.176 87.3877 12.12 87.6917 12.12C88.1077 12.12 88.4117 12.296 88.6037 12.648C88.7957 13 88.7077 13.4 88.3397 13.848L85.0037 17.976L88.6037 22.416C88.9557 22.848 89.0357 23.248 88.8437 23.616C88.6677 23.968 88.3637 24.144 87.9317 24.144C87.4037 24.144 86.9637 23.92 86.6117 23.472L83.5877 19.68L80.5877 23.472C80.4117 23.696 80.2277 23.864 80.0357 23.976C79.8437 24.088 79.5957 24.144 79.2917 24.144Z" fill="#33334F"/>
</svg>
